<svg xmlns="http://www.w3.org/2000/svg" xmlns:xlink="http://www.w3.org/1999/xlink" width="800" zoomAndPan="magnify" viewBox="0 0 600 149.999998" height="200" preserveAspectRatio="xMidYMid meet" version="1.0"><defs><g/></defs><g fill="#004aad" fill-opacity="1"><g transform="translate(173.402342, 96.749996)"><g><path d="M 20.53125 -44.328125 C 21.625 -46.015625 23.101562 -47.460938 24.96875 -48.671875 C 26.84375 -49.878906 28.894531 -50.707031 31.125 -51.15625 C 33.351562 -51.613281 35.582031 -51.554688 37.8125 -50.984375 C 40.039062 -50.410156 42.085938 -49.21875 43.953125 -47.40625 C 45.828125 -45.59375 47.335938 -43.039062 48.484375 -39.75 C 49.628906 -36.46875 50.203125 -32.328125 50.203125 -27.328125 C 50.203125 -21.835938 49.507812 -17.175781 48.125 -13.34375 C 46.738281 -9.507812 44.898438 -6.460938 42.609375 -4.203125 C 40.316406 -1.941406 37.78125 -0.359375 35 0.546875 C 32.226562 1.453125 29.441406 1.753906 26.640625 1.453125 C 23.835938 1.148438 21.257812 0.332031 18.90625 -1 C 15.945312 -2.019531 13.382812 -2.210938 11.21875 -1.578125 C 9.050781 -0.953125 7.300781 -0.0351562 5.96875 1.171875 C 5.96875 1.171875 5.847656 1.171875 5.609375 1.171875 C 5.367188 1.171875 5.15625 1.082031 4.96875 0.90625 C 4.726562 0.726562 4.625 0.5625 4.65625 0.40625 C 4.6875 0.257812 4.703125 0.1875 4.703125 0.1875 C 4.765625 0 4.8125 -1.070312 4.84375 -3.03125 C 4.875 -4.988281 4.914062 -7.582031 4.96875 -10.8125 C 5.03125 -14.039062 5.078125 -17.628906 5.109375 -21.578125 C 5.140625 -25.523438 5.171875 -29.59375 5.203125 -33.78125 C 5.234375 -37.976562 5.265625 -42.050781 5.296875 -46 C 5.328125 -49.945312 5.351562 -53.488281 5.375 -56.625 C 5.40625 -59.769531 5.421875 -62.257812 5.421875 -64.09375 C 5.421875 -65.9375 5.421875 -66.859375 5.421875 -66.859375 L 1.265625 -69.65625 L 1.265625 -70.921875 C 1.265625 -70.921875 1.773438 -70.921875 2.796875 -70.921875 C 3.828125 -70.921875 5.125 -70.9375 6.6875 -70.96875 C 8.257812 -71 9.84375 -71.015625 11.4375 -71.015625 C 13.039062 -71.015625 14.441406 -71.015625 15.640625 -71.015625 C 16.847656 -71.015625 17.578125 -71.015625 17.828125 -71.015625 C 18.722656 -71.015625 19.457031 -70.757812 20.03125 -70.25 C 20.601562 -69.738281 20.863281 -68.96875 20.8125 -67.9375 C 20.8125 -67.820312 20.796875 -66.675781 20.765625 -64.5 C 20.734375 -62.332031 20.703125 -59.484375 20.671875 -55.953125 C 20.640625 -52.421875 20.59375 -48.546875 20.53125 -44.328125 Z M 20.078125 -2.359375 C 22.367188 -0.960938 24.3125 -0.429688 25.90625 -0.765625 C 27.507812 -1.097656 28.820312 -2.03125 29.84375 -3.5625 C 30.875 -5.101562 31.675781 -7.050781 32.25 -9.40625 C 32.820312 -11.757812 33.210938 -14.304688 33.421875 -17.046875 C 33.640625 -19.796875 33.75 -22.5 33.75 -25.15625 C 33.75 -27.5 33.65625 -29.863281 33.46875 -32.25 C 33.289062 -34.632812 32.988281 -36.863281 32.5625 -38.9375 C 32.144531 -41.019531 31.554688 -42.753906 30.796875 -44.140625 C 30.046875 -45.535156 29.097656 -46.382812 27.953125 -46.6875 C 27.171875 -46.925781 26.222656 -46.773438 25.109375 -46.234375 C 23.992188 -45.691406 23 -44.921875 22.125 -43.921875 C 21.25 -42.929688 20.71875 -41.800781 20.53125 -40.53125 C 20.476562 -36.664062 20.4375 -32.773438 20.40625 -28.859375 C 20.375 -24.941406 20.328125 -21.234375 20.265625 -17.734375 C 20.203125 -14.234375 20.15625 -11.140625 20.125 -8.453125 C 20.09375 -5.773438 20.078125 -3.742188 20.078125 -2.359375 Z M 20.078125 -2.359375 "/></g></g></g><g fill="#004aad" fill-opacity="1"><g transform="translate(226.772079, 96.749996)"><g><path d="M 46.3125 -36.1875 C 46.3125 -35.945312 46.238281 -35.644531 46.09375 -35.28125 C 45.945312 -34.914062 45.722656 -34.675781 45.421875 -34.5625 C 44.929688 -34.4375 43.914062 -33.96875 42.375 -33.15625 C 40.84375 -32.34375 38.988281 -31.347656 36.8125 -30.171875 C 34.644531 -28.992188 32.429688 -27.800781 30.171875 -26.59375 C 27.910156 -25.382812 25.785156 -24.328125 23.796875 -23.421875 C 21.804688 -22.523438 20.238281 -21.925781 19.09375 -21.625 C 19.75 -17.757812 21.054688 -14.890625 23.015625 -13.015625 C 24.984375 -11.148438 27.203125 -10.128906 29.671875 -9.953125 C 32.148438 -9.773438 34.5625 -10.257812 36.90625 -11.40625 C 39.257812 -12.550781 41.191406 -14.175781 42.703125 -16.28125 L 43.78125 -15.828125 C 42.519531 -11.546875 40.617188 -8.15625 38.078125 -5.65625 C 35.546875 -3.15625 32.695312 -1.476562 29.53125 -0.625 C 26.363281 0.21875 23.179688 0.289062 19.984375 -0.40625 C 16.796875 -1.101562 13.828125 -2.535156 11.078125 -4.703125 C 8.335938 -6.878906 6.125 -9.726562 4.4375 -13.25 C 2.75 -16.78125 1.90625 -20.925781 1.90625 -25.6875 C 1.90625 -30.695312 2.6875 -34.953125 4.25 -38.453125 C 5.820312 -41.953125 7.84375 -44.722656 10.3125 -46.765625 C 12.90625 -49.003906 15.769531 -50.546875 18.90625 -51.390625 C 22.039062 -52.234375 25.160156 -52.488281 28.265625 -52.15625 C 31.378906 -51.820312 34.257812 -50.960938 36.90625 -49.578125 C 39.5625 -48.191406 41.734375 -46.363281 43.421875 -44.09375 C 45.109375 -41.832031 46.070312 -39.195312 46.3125 -36.1875 Z M 35.640625 -45.140625 C 36.003906 -46.410156 35.851562 -47.46875 35.1875 -48.3125 C 34.53125 -49.15625 33.566406 -49.710938 32.296875 -49.984375 C 31.023438 -50.253906 29.679688 -50.191406 28.265625 -49.796875 C 26.847656 -49.410156 25.597656 -48.613281 24.515625 -47.40625 C 22.953125 -45.65625 21.582031 -43.09375 20.40625 -39.71875 C 19.226562 -36.34375 18.640625 -32.117188 18.640625 -27.046875 C 18.640625 -26.503906 18.65625 -25.960938 18.6875 -25.421875 C 18.71875 -24.878906 18.757812 -24.367188 18.8125 -23.890625 C 24.539062 -29.617188 28.640625 -34.15625 31.109375 -37.5 C 33.585938 -40.84375 35.097656 -43.390625 35.640625 -45.140625 Z M 35.640625 -45.140625 "/></g></g></g><g fill="#004aad" fill-opacity="1"><g transform="translate(275.437939, 96.749996)"><g><path d="M 37.265625 -47.859375 C 37.210938 -47.734375 36.789062 -46.78125 36 -45 C 35.21875 -43.226562 34.191406 -40.953125 32.921875 -38.171875 C 31.660156 -35.398438 30.273438 -32.367188 28.765625 -29.078125 C 27.253906 -25.796875 25.757812 -22.507812 24.28125 -19.21875 C 22.8125 -15.9375 21.457031 -12.9375 20.21875 -10.21875 C 18.976562 -7.507812 17.984375 -5.320312 17.234375 -3.65625 C 16.484375 -2 16.109375 -1.171875 16.109375 -1.171875 C 19.117188 -1.171875 22.144531 -1.742188 25.1875 -2.890625 C 28.238281 -4.035156 30.671875 -5.96875 32.484375 -8.6875 C 33.328125 -9.945312 33.988281 -11.46875 34.46875 -13.25 C 34.945312 -15.03125 35.28125 -17.066406 35.46875 -19.359375 L 36.734375 -19.359375 C 36.734375 -18.148438 36.75 -16.566406 36.78125 -14.609375 C 36.8125 -12.648438 36.851562 -10.644531 36.90625 -8.59375 C 36.96875 -6.539062 37.015625 -4.726562 37.046875 -3.15625 C 37.078125 -1.59375 37.125 -0.539062 37.1875 0 C 36.695312 0 35.515625 0 33.640625 0 C 31.773438 0 29.515625 0 26.859375 0 C 24.210938 0 21.457031 0 18.59375 0 C 15.726562 0 13.015625 0.015625 10.453125 0.046875 C 7.890625 0.078125 5.789062 0.09375 4.15625 0.09375 C 3.5 0.09375 2.957031 -0.113281 2.53125 -0.53125 C 2.113281 -0.957031 2.144531 -1.742188 2.625 -2.890625 C 2.738281 -3.191406 3.234375 -4.273438 4.109375 -6.140625 C 4.984375 -8.015625 6.097656 -10.367188 7.453125 -13.203125 C 8.816406 -16.035156 10.28125 -19.109375 11.84375 -22.421875 C 13.414062 -25.742188 14.96875 -29.035156 16.5 -32.296875 C 18.039062 -35.554688 19.441406 -38.539062 20.703125 -41.25 C 21.972656 -43.96875 23 -46.140625 23.78125 -47.765625 C 24.570312 -49.390625 24.96875 -50.203125 24.96875 -50.203125 C 24.1875 -50.203125 23.113281 -50.140625 21.75 -50.015625 C 20.394531 -49.898438 18.945312 -49.675781 17.40625 -49.34375 C 15.875 -49.019531 14.472656 -48.554688 13.203125 -47.953125 C 11.878906 -47.347656 10.566406 -46.410156 9.265625 -45.140625 C 7.972656 -43.878906 6.859375 -42.175781 5.921875 -40.03125 C 4.984375 -37.894531 4.367188 -35.195312 4.078125 -31.9375 L 2.796875 -31.9375 C 2.796875 -33.144531 2.78125 -34.816406 2.75 -36.953125 C 2.726562 -39.097656 2.6875 -41.269531 2.625 -43.46875 C 2.5625 -45.664062 2.515625 -47.535156 2.484375 -49.078125 C 2.453125 -50.617188 2.4375 -51.390625 2.4375 -51.390625 C 2.4375 -51.390625 3.207031 -51.390625 4.75 -51.390625 C 6.289062 -51.390625 8.296875 -51.390625 10.765625 -51.390625 C 13.234375 -51.390625 15.851562 -51.40625 18.625 -51.4375 C 21.40625 -51.46875 24.0625 -51.484375 26.59375 -51.484375 C 29.125 -51.484375 31.265625 -51.484375 33.015625 -51.484375 C 34.765625 -51.484375 35.757812 -51.484375 36 -51.484375 C 36.84375 -51.421875 37.328125 -50.9375 37.453125 -50.03125 C 37.578125 -49.125 37.515625 -48.398438 37.265625 -47.859375 Z M 37.265625 -47.859375 "/></g></g></g><g fill="#004aad" fill-opacity="1"><g transform="translate(315.329546, 96.749996)"><g><path d="M 25.421875 -50.296875 C 33.503906 -50.296875 39.1875 -48.140625 42.46875 -43.828125 C 45.757812 -39.515625 47.40625 -33.316406 47.40625 -25.234375 C 47.40625 -19.992188 46.710938 -15.503906 45.328125 -11.765625 C 43.941406 -8.023438 41.648438 -5.160156 38.453125 -3.171875 C 35.253906 -1.179688 30.910156 -0.1875 25.421875 -0.1875 C 18.242188 -0.1875 12.753906 -2.144531 8.953125 -6.0625 C 5.148438 -9.976562 3.28125 -16.550781 3.34375 -25.78125 C 3.46875 -33.800781 5.21875 -39.890625 8.59375 -44.046875 C 11.96875 -48.210938 17.578125 -50.296875 25.421875 -50.296875 Z M 25.421875 -48.484375 C 24.210938 -48.484375 23.21875 -47.847656 22.4375 -46.578125 C 21.65625 -45.316406 21.019531 -43.691406 20.53125 -41.703125 C 20.050781 -39.710938 19.703125 -37.601562 19.484375 -35.375 C 19.273438 -33.144531 19.15625 -31.035156 19.125 -29.046875 C 19.101562 -27.054688 19.09375 -25.457031 19.09375 -24.25 C 19.09375 -23.101562 19.117188 -21.609375 19.171875 -19.765625 C 19.234375 -17.929688 19.382812 -15.988281 19.625 -13.9375 C 19.875 -11.882812 20.222656 -9.953125 20.671875 -8.140625 C 21.117188 -6.328125 21.734375 -4.847656 22.515625 -3.703125 C 23.304688 -2.554688 24.273438 -1.984375 25.421875 -1.984375 C 26.628906 -1.984375 27.609375 -2.585938 28.359375 -3.796875 C 29.117188 -5.003906 29.738281 -6.554688 30.21875 -8.453125 C 30.695312 -10.359375 31.054688 -12.378906 31.296875 -14.515625 C 31.535156 -16.660156 31.6875 -18.695312 31.75 -20.625 C 31.8125 -22.550781 31.84375 -24.085938 31.84375 -25.234375 C 31.84375 -26.378906 31.8125 -27.914062 31.75 -29.84375 C 31.6875 -31.78125 31.535156 -33.816406 31.296875 -35.953125 C 31.054688 -38.097656 30.695312 -40.117188 30.21875 -42.015625 C 29.738281 -43.921875 29.117188 -45.472656 28.359375 -46.671875 C 27.609375 -47.878906 26.628906 -48.484375 25.421875 -48.484375 Z M 25.421875 -48.484375 "/></g></g></g><g fill="#004aad" fill-opacity="1"><g transform="translate(362.819297, 96.749996)"><g><path d="M 29.125 -51.65625 L 29.125 -50.03125 L 22.4375 -50.03125 C 22.4375 -46.46875 22.453125 -42.394531 22.484375 -37.8125 C 22.515625 -33.226562 22.53125 -28.492188 22.53125 -23.609375 C 22.53125 -18.722656 22.53125 -13.957031 22.53125 -9.3125 C 22.53125 -8.894531 22.539062 -8.21875 22.5625 -7.28125 C 22.59375 -6.34375 22.625 -5.46875 22.65625 -4.65625 C 22.6875 -3.84375 22.703125 -3.4375 22.703125 -3.4375 L 30.484375 -8.59375 L 31.9375 -7.515625 C 29.164062 -5.398438 26.796875 -3.601562 24.828125 -2.125 C 22.867188 -0.644531 20.710938 0.09375 18.359375 0.09375 C 14.867188 0.09375 12.289062 -0.535156 10.625 -1.796875 C 8.96875 -3.066406 7.894531 -4.878906 7.40625 -7.234375 C 6.925781 -9.585938 6.75 -12.378906 6.875 -15.609375 C 7 -18.835938 7.0625 -22.410156 7.0625 -26.328125 C 7.0625 -29.160156 7.0625 -32.429688 7.0625 -36.140625 C 7.0625 -39.847656 7.0625 -44.476562 7.0625 -50.03125 L 3.53125 -50.03125 L 3.53125 -51.65625 L 7.0625 -51.65625 C 7.0625 -52.863281 7.0625 -54.296875 7.0625 -55.953125 C 7.0625 -57.609375 7.0625 -59.101562 7.0625 -60.4375 L 2.890625 -63.140625 L 2.890625 -64.5 C 2.890625 -64.5 3.566406 -64.515625 4.921875 -64.546875 C 6.285156 -64.578125 7.882812 -64.59375 9.71875 -64.59375 C 11.5625 -64.59375 13.207031 -64.59375 14.65625 -64.59375 C 15.5625 -64.59375 16.421875 -64.59375 17.234375 -64.59375 C 18.046875 -64.59375 18.785156 -64.5625 19.453125 -64.5 C 21.503906 -64.5 22.53125 -63.472656 22.53125 -61.421875 C 22.46875 -61.117188 22.4375 -60.019531 22.4375 -58.125 C 22.4375 -56.226562 22.4375 -54.070312 22.4375 -51.65625 Z M 29.125 -51.65625 "/></g></g></g><g fill="#004aad" fill-opacity="1"><g transform="translate(393.031617, 96.749996)"><g><path d="M 29.125 -51.65625 L 29.125 -50.03125 L 22.4375 -50.03125 C 22.4375 -46.46875 22.453125 -42.394531 22.484375 -37.8125 C 22.515625 -33.226562 22.53125 -28.492188 22.53125 -23.609375 C 22.53125 -18.722656 22.53125 -13.957031 22.53125 -9.3125 C 22.53125 -8.894531 22.539062 -8.21875 22.5625 -7.28125 C 22.59375 -6.34375 22.625 -5.46875 22.65625 -4.65625 C 22.6875 -3.84375 22.703125 -3.4375 22.703125 -3.4375 L 30.484375 -8.59375 L 31.9375 -7.515625 C 29.164062 -5.398438 26.796875 -3.601562 24.828125 -2.125 C 22.867188 -0.644531 20.710938 0.09375 18.359375 0.09375 C 14.867188 0.09375 12.289062 -0.535156 10.625 -1.796875 C 8.96875 -3.066406 7.894531 -4.878906 7.40625 -7.234375 C 6.925781 -9.585938 6.75 -12.378906 6.875 -15.609375 C 7 -18.835938 7.0625 -22.410156 7.0625 -26.328125 C 7.0625 -29.160156 7.0625 -32.429688 7.0625 -36.140625 C 7.0625 -39.847656 7.0625 -44.476562 7.0625 -50.03125 L 3.53125 -50.03125 L 3.53125 -51.65625 L 7.0625 -51.65625 C 7.0625 -52.863281 7.0625 -54.296875 7.0625 -55.953125 C 7.0625 -57.609375 7.0625 -59.101562 7.0625 -60.4375 L 2.890625 -63.140625 L 2.890625 -64.5 C 2.890625 -64.5 3.566406 -64.515625 4.921875 -64.546875 C 6.285156 -64.578125 7.882812 -64.59375 9.71875 -64.59375 C 11.5625 -64.59375 13.207031 -64.59375 14.65625 -64.59375 C 15.5625 -64.59375 16.421875 -64.59375 17.234375 -64.59375 C 18.046875 -64.59375 18.785156 -64.5625 19.453125 -64.5 C 21.503906 -64.5 22.53125 -63.472656 22.53125 -61.421875 C 22.46875 -61.117188 22.4375 -60.019531 22.4375 -58.125 C 22.4375 -56.226562 22.4375 -54.070312 22.4375 -51.65625 Z M 29.125 -51.65625 "/></g></g></g></svg>